<?xml version="1.0" standalone="no"?>
<!DOCTYPE svg PUBLIC "-//W3C//DTD SVG 20010904//EN"
 "http://www.w3.org/TR/2001/REC-SVG-20010904/DTD/svg10.dtd">
<svg version="1.0" xmlns="http://www.w3.org/2000/svg"
 width="512.000000pt" height="512.000000pt" viewBox="0 0 512.000000 512.000000"
 preserveAspectRatio="xMidYMid meet">

<g transform="translate(0.000000,512.000000) scale(0.100000,-0.100000)"
fill="#000000" stroke="none">
<path d="M2505 5096 c-56 -26 -88 -70 -92 -128 -8 -107 58 -168 183 -168 101
0 260 -17 387 -41 689 -129 1273 -569 1581 -1193 64 -129 132 -306 118 -306
-4 0 -239 137 -522 304 -283 167 -516 302 -518 301 -1 -1 3 -15 9 -31 6 -16
11 -59 12 -95 0 -121 -66 -225 -181 -281 l-67 -33 -672 -3 -673 -3 0 -279 0
-279 483 -3 482 -3 52 -27 c242 -128 238 -460 -7 -577 l-55 -26 -477 -3 -478
-3 0 -279 0 -279 678 -3 677 -3 57 -28 c107 -52 180 -166 181 -281 1 -94 -26
-161 -92 -227 -101 -100 -33 -94 -1028 -94 -474 0 -859 -3 -855 -6 4 -4 239
-138 522 -299 283 -161 547 -311 585 -334 l70 -41 -55 -6 c-109 -13 -427 -9
-542 7 -505 69 -942 288 -1300 651 -341 344 -551 769 -624 1258 -24 161 -24
467 0 620 67 432 242 820 510 1133 110 129 116 138 116 195 0 65 -30 113 -84
138 -50 23 -74 23 -124 4 -54 -22 -174 -159 -304 -350 -226 -330 -357 -667
-420 -1080 -26 -176 -29 -509 -5 -680 81 -575 328 -1074 729 -1475 445 -443
1002 -696 1637 -741 316 -22 674 25 981 129 782 267 1398 913 1626 1706 168
585 123 1229 -126 1789 -184 413 -510 794 -900 1050 -227 149 -567 291 -840
351 -232 51 -577 79 -635 52z"/>
<path d="M1854 5006 c-62 -27 -103 -111 -84 -175 15 -54 39 -82 87 -103 78
-35 167 0 199 79 53 126 -76 253 -202 199z"/>
<path d="M1249 4738 c-52 -30 -83 -88 -76 -145 17 -153 220 -187 287 -48 64
133 -83 268 -211 193z"/>
</g>
</svg>
